# xmcd
#
# Track frame offsets:
# 150
# 23558
# 44778
# 67800
# 82050
# 109829
# 140558
# 160801
# 175882
# 201757
#
# Disc length: 2955 seconds
#
# Revision: 0
# Processed by: cddbd v1.5.2PL0 Copyright (c) Steve Scherf et al.
# Submitted via: Audion 3.0.2 (http://www.panic.com/audion/)
#
DISCID=870b890a
DTITLE=Afrofreque - Fresh Soul Frequencies
DYEAR=1900
DGENRE=
TTITLE0=Illumination
TTITLE1=Natural Fact
TTITLE2=Ice Age
TTITLE3=What'cha Gonna Do
TTITLE4=Cool Breeze
TTITLE5=Born Soul
TTITLE6=Wildstyle
TTITLE7=Furthermind
TTITLE8=Comin' to the Surface
TTITLE9=Smooth and Sweet
EXTD=
EXTT0=
EXTT1=
EXTT2=
EXTT3=
EXTT4=
EXTT5=
EXTT6=
EXTT7=
EXTT8=
EXTT9=
PLAYORDER=
